<svg width="500" height="500" viewBox="0 0 500 500" fill="none" xmlns="http://www.w3.org/2000/svg">
<rect x="292" y="192" width="4" height="4" fill="black"/>
<rect width="4" height="4" transform="matrix(-1 0 0 1 208.25 192)" fill="black"/>
<rect x="296" y="188" width="4" height="4" fill="black"/>
<rect width="4" height="4" transform="matrix(-1 0 0 1 204.25 188)" fill="black"/>
<rect x="300" y="188" width="4" height="4" fill="black"/>
<rect width="4" height="4" transform="matrix(-1 0 0 1 200.25 188)" fill="black"/>
<rect x="296" y="192" width="4" height="4" fill="black"/>
<rect width="4" height="4" transform="matrix(-1 0 0 1 204.25 192)" fill="black"/>
<rect x="300" y="184" width="4" height="4" fill="black"/>
<rect width="4" height="4" transform="matrix(-1 0 0 1 200.25 184)" fill="black"/>
<rect x="304" y="184" width="4" height="4" fill="black"/>
<rect width="4" height="4" transform="matrix(-1 0 0 1 196.25 184)" fill="black"/>
<rect x="308" y="184" width="4" height="4" fill="black"/>
<rect width="4" height="4" transform="matrix(-1 0 0 1 192.25 184)" fill="black"/>
<rect x="312" y="184" width="4" height="4" fill="black"/>
<rect width="4" height="4" transform="matrix(-1 0 0 1 188.25 184)" fill="black"/>
<rect x="316" y="184" width="4" height="4" fill="black"/>
<rect width="4" height="4" transform="matrix(-1 0 0 1 184.25 184)" fill="black"/>
<rect x="292" y="212" width="4" height="4" fill="black"/>
<rect x="292" y="216" width="4" height="4" fill="black"/>
<rect x="292" y="220" width="4" height="4" fill="black"/>
<rect x="292" y="224" width="4" height="4" fill="black"/>
<rect x="296" y="208" width="4" height="4" fill="black"/>
<rect x="296" y="212" width="4" height="4" fill="black"/>
<rect x="296" y="216" width="4" height="4" fill="black"/>
<rect x="296" y="220" width="4" height="4" fill="black"/>
<rect x="296" y="224" width="4" height="4" fill="black"/>
<rect x="296" y="228" width="4" height="4" fill="black"/>
<rect x="300" y="208" width="4" height="4" fill="black"/>
<rect x="300" y="212" width="4" height="4" fill="black"/>
<rect x="300" y="216" width="4" height="4" fill="black"/>
<rect x="300" y="220" width="4" height="4" fill="black"/>
<rect x="300" y="224" width="4" height="4" fill="black"/>
<rect x="300" y="228" width="4" height="4" fill="black"/>
<rect x="300" y="232" width="4" height="4" fill="black"/>
<rect x="304" y="204" width="4" height="4" fill="black"/>
<rect x="304" y="208" width="4" height="4" fill="black"/>
<rect x="304" y="212" width="4" height="4" fill="black"/>
<rect x="304" y="216" width="4" height="4" fill="black"/>
<rect x="304" y="220" width="4" height="4" fill="black"/>
<rect x="304" y="224" width="4" height="4" fill="black"/>
<rect x="304" y="228" width="4" height="4" fill="black"/>
<rect x="304" y="232" width="4" height="4" fill="black"/>
<rect x="308" y="204" width="4" height="4" fill="black"/>
<rect x="308" y="208" width="4" height="4" fill="black"/>
<rect x="308" y="212" width="4" height="4" fill="black"/>
<rect x="308" y="216" width="4" height="4" fill="black"/>
<rect x="308" y="220" width="4" height="4" fill="black"/>
<rect x="308" y="224" width="4" height="4" fill="black"/>
<rect x="308" y="228" width="4" height="4" fill="black"/>
<rect x="308" y="232" width="4" height="4" fill="black"/>
<rect x="312" y="200" width="4" height="4" fill="black"/>
<rect x="312" y="204" width="4" height="4" fill="black"/>
<rect x="312" y="208" width="4" height="4" fill="black"/>
<rect x="312" y="212" width="4" height="4" fill="black"/>
<rect x="312" y="216" width="4" height="4" fill="black"/>
<rect x="312" y="220" width="4" height="4" fill="black"/>
<rect x="312" y="224" width="4" height="4" fill="black"/>
<rect x="312" y="228" width="4" height="4" fill="black"/>
<rect x="312" y="232" width="4" height="4" fill="black"/>
<rect x="316" y="200" width="4" height="4" fill="black"/>
<rect x="316" y="204" width="4" height="4" fill="black"/>
<rect x="316" y="208" width="4" height="4" fill="black"/>
<rect x="316" y="212" width="4" height="4" fill="black"/>
<rect x="316" y="216" width="4" height="4" fill="black"/>
<rect x="316" y="220" width="4" height="4" fill="black"/>
<rect x="316" y="224" width="4" height="4" fill="black"/>
<rect x="316" y="228" width="4" height="4" fill="black"/>
<rect x="316" y="232" width="4" height="4" fill="black"/>
<rect x="320" y="200" width="4" height="4" fill="black"/>
<rect x="320" y="204" width="4" height="4" fill="black"/>
<rect x="320" y="208" width="4" height="4" fill="black"/>
<rect x="320" y="212" width="4" height="4" fill="black"/>
<rect x="320" y="216" width="4" height="4" fill="black"/>
<rect x="320" y="220" width="4" height="4" fill="black"/>
<rect x="320" y="224" width="4" height="4" fill="black"/>
<rect x="320" y="228" width="4" height="4" fill="black"/>
<rect x="324" y="200" width="4" height="4" fill="black"/>
<rect x="324" y="204" width="4" height="4" fill="black"/>
<rect x="324" y="208" width="4" height="4" fill="black"/>
<rect x="324" y="212" width="4" height="4" fill="black"/>
<rect x="324" y="216" width="4" height="4" fill="black"/>
<rect x="324" y="220" width="4" height="4" fill="black"/>
<rect x="324" y="224" width="4" height="4" fill="black"/>
<rect width="4" height="4" transform="matrix(-1 0 0 1 208 212)" fill="black"/>
<rect width="4" height="4" transform="matrix(-1 0 0 1 208 216)" fill="black"/>
<rect width="4" height="4" transform="matrix(-1 0 0 1 208 220)" fill="black"/>
<rect width="4" height="4" transform="matrix(-1 0 0 1 208 224)" fill="black"/>
<rect width="4" height="4" transform="matrix(-1 0 0 1 204 208)" fill="black"/>
<rect width="4" height="4" transform="matrix(-1 0 0 1 204 212)" fill="black"/>
<rect width="4" height="4" transform="matrix(-1 0 0 1 204 216)" fill="black"/>
<rect width="4" height="4" transform="matrix(-1 0 0 1 204 220)" fill="black"/>
<rect width="4" height="4" transform="matrix(-1 0 0 1 204 224)" fill="black"/>
<rect width="4" height="4" transform="matrix(-1 0 0 1 204 228)" fill="black"/>
<rect width="4" height="4" transform="matrix(-1 0 0 1 200 208)" fill="black"/>
<rect width="4" height="4" transform="matrix(-1 0 0 1 200 212)" fill="black"/>
<rect width="4" height="4" transform="matrix(-1 0 0 1 200 216)" fill="black"/>
<rect width="4" height="4" transform="matrix(-1 0 0 1 200 220)" fill="black"/>
<rect width="4" height="4" transform="matrix(-1 0 0 1 200 224)" fill="black"/>
<rect width="4" height="4" transform="matrix(-1 0 0 1 200 228)" fill="black"/>
<rect width="4" height="4" transform="matrix(-1 0 0 1 200 232)" fill="black"/>
<rect width="4" height="4" transform="matrix(-1 0 0 1 196 204)" fill="black"/>
<rect width="4" height="4" transform="matrix(-1 0 0 1 196 208)" fill="black"/>
<rect width="4" height="4" transform="matrix(-1 0 0 1 196 212)" fill="black"/>
<rect width="4" height="4" transform="matrix(-1 0 0 1 196 216)" fill="black"/>
<rect width="4" height="4" transform="matrix(-1 0 0 1 196 220)" fill="black"/>
<rect width="4" height="4" transform="matrix(-1 0 0 1 196 224)" fill="black"/>
<rect width="4" height="4" transform="matrix(-1 0 0 1 196 228)" fill="black"/>
<rect width="4" height="4" transform="matrix(-1 0 0 1 196 232)" fill="black"/>
<rect width="4" height="4" transform="matrix(-1 0 0 1 192 204)" fill="black"/>
<rect width="4" height="4" transform="matrix(-1 0 0 1 192 208)" fill="black"/>
<rect width="4" height="4" transform="matrix(-1 0 0 1 192 212)" fill="black"/>
<rect width="4" height="4" transform="matrix(-1 0 0 1 192 216)" fill="black"/>
<rect width="4" height="4" transform="matrix(-1 0 0 1 192 220)" fill="black"/>
<rect width="4" height="4" transform="matrix(-1 0 0 1 192 224)" fill="black"/>
<rect width="4" height="4" transform="matrix(-1 0 0 1 192 228)" fill="black"/>
<rect width="4" height="4" transform="matrix(-1 0 0 1 192 232)" fill="black"/>
<rect width="4" height="4" transform="matrix(-1 0 0 1 188 200)" fill="black"/>
<rect width="4" height="4" transform="matrix(-1 0 0 1 188 204)" fill="black"/>
<rect width="4" height="4" transform="matrix(-1 0 0 1 188 208)" fill="black"/>
<rect width="4" height="4" transform="matrix(-1 0 0 1 188 212)" fill="black"/>
<rect width="4" height="4" transform="matrix(-1 0 0 1 188 216)" fill="black"/>
<rect width="4" height="4" transform="matrix(-1 0 0 1 188 220)" fill="black"/>
<rect width="4" height="4" transform="matrix(-1 0 0 1 188 224)" fill="black"/>
<rect width="4" height="4" transform="matrix(-1 0 0 1 188 228)" fill="black"/>
<rect width="4" height="4" transform="matrix(-1 0 0 1 188 232)" fill="black"/>
<rect width="4" height="4" transform="matrix(-1 0 0 1 184 200)" fill="black"/>
<rect width="4" height="4" transform="matrix(-1 0 0 1 184 204)" fill="black"/>
<rect width="4" height="4" transform="matrix(-1 0 0 1 184 208)" fill="black"/>
<rect width="4" height="4" transform="matrix(-1 0 0 1 184 212)" fill="black"/>
<rect width="4" height="4" transform="matrix(-1 0 0 1 184 216)" fill="black"/>
<rect width="4" height="4" transform="matrix(-1 0 0 1 184 220)" fill="black"/>
<rect width="4" height="4" transform="matrix(-1 0 0 1 184 224)" fill="black"/>
<rect width="4" height="4" transform="matrix(-1 0 0 1 184 228)" fill="black"/>
<rect width="4" height="4" transform="matrix(-1 0 0 1 184 232)" fill="black"/>
<rect width="4" height="4" transform="matrix(-1 0 0 1 180 200)" fill="black"/>
<rect width="4" height="4" transform="matrix(-1 0 0 1 180 204)" fill="black"/>
<rect width="4" height="4" transform="matrix(-1 0 0 1 180 208)" fill="black"/>
<rect width="4" height="4" transform="matrix(-1 0 0 1 180 212)" fill="black"/>
<rect width="4" height="4" transform="matrix(-1 0 0 1 180 216)" fill="black"/>
<rect width="4" height="4" transform="matrix(-1 0 0 1 180 220)" fill="black"/>
<rect width="4" height="4" transform="matrix(-1 0 0 1 180 224)" fill="black"/>
<rect width="4" height="4" transform="matrix(-1 0 0 1 180 228)" fill="black"/>
<rect width="4" height="4" transform="matrix(-1 0 0 1 176 200)" fill="black"/>
<rect width="4" height="4" transform="matrix(-1 0 0 1 176 204)" fill="black"/>
<rect width="4" height="4" transform="matrix(-1 0 0 1 176 208)" fill="black"/>
<rect width="4" height="4" transform="matrix(-1 0 0 1 176 212)" fill="black"/>
<rect width="4" height="4" transform="matrix(-1 0 0 1 176 216)" fill="black"/>
<rect width="4" height="4" transform="matrix(-1 0 0 1 176 220)" fill="black"/>
<rect width="4" height="4" transform="matrix(-1 0 0 1 176 224)" fill="black"/>
</svg>
