<svg width="50" height="5" viewBox="0 0 50 5" fill="none" xmlns="http://www.w3.org/2000/svg">
<rect x="2" y="0" width="16" height="1" fill="black"/>
<rect x="1" y="1" width="18" height="1" fill="black"/>
<rect x="6" y="1" width="8" height="1" fill="white"/>
<rect x="0" y="2" width="20" height="1" fill="black"/>
<rect x="4" y="2" width="12" height="1" fill="white"/>
<rect x="0" y="3" width="20" height="1" fill="black"/>
<rect x="3" y="3" width="14" height="1" fill="white"/>
<rect x="0" y="4" width="20" height="1" fill="black"/>
<rect x="2" y="4" width="16" height="1" fill="white"/>
<rect x="32" y="0" width="16" height="1" fill="black"/>
<rect x="31" y="1" width="18" height="1" fill="black"/>
<rect x="36" y="1" width="8" height="1" fill="white"/>
<rect x="30" y="2" width="20" height="1" fill="black"/>
<rect x="34" y="2" width="12" height="1" fill="white"/>
<rect x="30" y="3" width="20" height="1" fill="black"/>
<rect x="33" y="3" width="14" height="1" fill="white"/>
<rect x="30" y="4" width="20" height="1" fill="black"/>
<rect x="32" y="4" width="16" height="1" fill="white"/>
</svg>
