<svg width="500" height="500" viewBox="0 0 500 500" fill="none" xmlns="http://www.w3.org/2000/svg">
<rect x="292" y="220" width="4" height="4" fill="black"/>
<rect x="292" y="224" width="4" height="4" fill="black"/>
<rect x="296" y="216" width="4" height="4" fill="black"/>
<rect x="296" y="220" width="4" height="4" fill="black"/>
<rect x="300" y="212" width="4" height="4" fill="black"/>
<rect x="300" y="216" width="4" height="4" fill="black"/>
<rect x="304" y="212" width="4" height="4" fill="black"/>
<rect x="308" y="212" width="4" height="4" fill="black"/>
<rect x="312" y="212" width="4" height="4" fill="black"/>
<rect x="316" y="212" width="4" height="4" fill="black"/>
<rect x="316" y="216" width="4" height="4" fill="black"/>
<rect x="320" y="216" width="4" height="4" fill="black"/>
<rect x="320" y="220" width="4" height="4" fill="black"/>
<rect x="324" y="220" width="4" height="4" fill="black"/>
<rect x="324" y="224" width="4" height="4" fill="black"/>
<rect x="172" y="220" width="4" height="4" fill="black"/>
<rect x="172" y="224" width="4" height="4" fill="black"/>
<rect x="176" y="216" width="4" height="4" fill="black"/>
<rect x="176" y="220" width="4" height="4" fill="black"/>
<rect x="180" y="212" width="4" height="4" fill="black"/>
<rect x="180" y="216" width="4" height="4" fill="black"/>
<rect x="184" y="212" width="4" height="4" fill="black"/>
<rect x="188" y="212" width="4" height="4" fill="black"/>
<rect x="192" y="212" width="4" height="4" fill="black"/>
<rect x="196" y="212" width="4" height="4" fill="black"/>
<rect x="196" y="216" width="4" height="4" fill="black"/>
<rect x="200" y="216" width="4" height="4" fill="black"/>
<rect x="200" y="220" width="4" height="4" fill="black"/>
<rect x="204" y="220" width="4" height="4" fill="black"/>
<rect x="204" y="224" width="4" height="4" fill="black"/>
</svg>
