<svg width="500" height="500" viewBox="0 0 500 500" fill="none" xmlns="http://www.w3.org/2000/svg">
<rect x="172" y="196" width="4" height="4" fill="black"/>
<rect x="172" y="200" width="4" height="4" fill="black"/>
<rect x="172" y="204" width="4" height="4" fill="black"/>
<rect x="172" y="208" width="4" height="4" fill="black"/>
<rect x="172" y="212" width="4" height="4" fill="black"/>
<rect x="172" y="216" width="4" height="4" fill="black"/>
<rect x="172" y="220" width="4" height="4" fill="black"/>
<rect x="172" y="224" width="4" height="4" fill="black"/>
<rect x="176" y="192" width="4" height="4" fill="black"/>
<rect x="176" y="196" width="4" height="4" fill="black"/>
<rect x="176" y="228" width="4" height="4" fill="black"/>
<rect x="180" y="228" width="4" height="4" fill="black"/>
<rect x="176" y="224" width="4" height="4" fill="black"/>
<rect x="180" y="188" width="4" height="4" fill="black"/>
<rect x="180" y="192" width="4" height="4" fill="black"/>
<rect x="180" y="232" width="4" height="4" fill="black"/>
<rect x="184" y="188" width="4" height="4" fill="black"/>
<rect x="184" y="232" width="4" height="4" fill="black"/>
<rect x="188" y="188" width="4" height="4" fill="black"/>
<rect x="188" y="232" width="4" height="4" fill="black"/>
<rect x="192" y="188" width="4" height="4" fill="black"/>
<rect x="192" y="232" width="4" height="4" fill="black"/>
<rect x="196" y="188" width="4" height="4" fill="black"/>
<rect x="196" y="192" width="4" height="4" fill="black"/>
<rect x="196" y="232" width="4" height="4" fill="black"/>
<rect x="196" y="228" width="4" height="4" fill="black"/>
<rect x="200" y="192" width="4" height="4" fill="black"/>
<rect x="200" y="228" width="4" height="4" fill="black"/>
<rect x="200" y="224" width="4" height="4" fill="black"/>
<rect x="204" y="196" width="4" height="4" fill="black"/>
<rect x="200" y="196" width="4" height="4" fill="black"/>
<rect x="204" y="200" width="4" height="4" fill="black"/>
<rect x="204" y="204" width="4" height="4" fill="black"/>
<rect x="204" y="208" width="4" height="4" fill="black"/>
<rect x="204" y="212" width="4" height="4" fill="black"/>
<rect x="204" y="216" width="4" height="4" fill="black"/>
<rect x="204" y="220" width="4" height="4" fill="black"/>
<rect x="204" y="224" width="4" height="4" fill="black"/>
<rect x="292" y="196" width="4" height="4" fill="black"/>
<rect x="292" y="200" width="4" height="4" fill="black"/>
<rect x="292" y="204" width="4" height="4" fill="black"/>
<rect x="292" y="208" width="4" height="4" fill="black"/>
<rect x="292" y="212" width="4" height="4" fill="black"/>
<rect x="292" y="216" width="4" height="4" fill="black"/>
<rect x="292" y="220" width="4" height="4" fill="black"/>
<rect x="292" y="224" width="4" height="4" fill="black"/>
<rect x="296" y="192" width="4" height="4" fill="black"/>
<rect x="296" y="196" width="4" height="4" fill="black"/>
<rect x="296" y="224" width="4" height="4" fill="black"/>
<rect x="296" y="228" width="4" height="4" fill="black"/>
<rect x="300" y="188" width="4" height="4" fill="black"/>
<rect x="300" y="192" width="4" height="4" fill="black"/>
<rect x="300" y="228" width="4" height="4" fill="black"/>
<rect x="300" y="232" width="4" height="4" fill="black"/>
<rect x="304" y="188" width="4" height="4" fill="black"/>
<rect x="304" y="232" width="4" height="4" fill="black"/>
<rect x="308" y="188" width="4" height="4" fill="black"/>
<rect x="308" y="232" width="4" height="4" fill="black"/>
<rect x="312" y="188" width="4" height="4" fill="black"/>
<rect x="312" y="232" width="4" height="4" fill="black"/>
<rect x="316" y="188" width="4" height="4" fill="black"/>
<rect x="316" y="192" width="4" height="4" fill="black"/>
<rect x="316" y="228" width="4" height="4" fill="black"/>
<rect x="316" y="232" width="4" height="4" fill="black"/>
<rect x="320" y="192" width="4" height="4" fill="black"/>
<rect x="320" y="196" width="4" height="4" fill="black"/>
<rect x="320" y="224" width="4" height="4" fill="black"/>
<rect x="320" y="228" width="4" height="4" fill="black"/>
<rect x="324" y="196" width="4" height="4" fill="black"/>
<rect x="324" y="200" width="4" height="4" fill="black"/>
<rect x="324" y="204" width="4" height="4" fill="black"/>
<rect x="324" y="208" width="4" height="4" fill="black"/>
<rect x="324" y="212" width="4" height="4" fill="black"/>
<rect x="324" y="216" width="4" height="4" fill="black"/>
<rect x="324" y="220" width="4" height="4" fill="black"/>
<rect x="324" y="224" width="4" height="4" fill="black"/>
</svg>
