<svg width="500" height="500" viewBox="0 0 500 500" fill="none" xmlns="http://www.w3.org/2000/svg">
<rect x="172" y="196" width="4" height="4" fill="black"/>
<rect x="172" y="200" width="4" height="4" fill="black"/>
<rect x="172" y="204" width="4" height="4" fill="black"/>
<rect x="172" y="208" width="4" height="4" fill="black"/>
<rect x="172" y="212" width="4" height="4" fill="black"/>
<rect x="172" y="216" width="4" height="4" fill="black"/>
<rect x="172" y="220" width="4" height="4" fill="black"/>
<rect x="172" y="224" width="4" height="4" fill="black"/>
<rect x="176" y="192" width="4" height="4" fill="black"/>
<rect x="176" y="196" width="4" height="4" fill="black"/>
<rect x="176" y="200" width="4" height="4" fill="black"/>
<rect x="176" y="204" width="4" height="4" fill="black"/>
<rect x="176" y="208" width="4" height="4" fill="black"/>
<rect x="176" y="212" width="4" height="4" fill="black"/>
<rect x="176" y="216" width="4" height="4" fill="black"/>
<rect x="176" y="220" width="4" height="4" fill="black"/>
<rect x="176" y="224" width="4" height="4" fill="black"/>
<rect x="176" y="228" width="4" height="4" fill="black"/>
<rect x="180" y="188" width="4" height="4" fill="black"/>
<rect x="180" y="192" width="4" height="4" fill="black"/>
<rect x="180" y="196" width="4" height="4" fill="black"/>
<rect x="180" y="200" width="4" height="4" fill="black"/>
<rect x="180" y="204" width="4" height="4" fill="black"/>
<rect x="180" y="208" width="4" height="4" fill="black"/>
<rect x="180" y="212" width="4" height="4" fill="black"/>
<rect x="180" y="216" width="4" height="4" fill="black"/>
<rect x="180" y="220" width="4" height="4" fill="black"/>
<rect x="180" y="224" width="4" height="4" fill="black"/>
<rect x="180" y="228" width="4" height="4" fill="black"/>
<rect x="180" y="232" width="4" height="4" fill="black"/>
<rect x="184" y="188" width="4" height="4" fill="black"/>
<rect x="184" y="192" width="4" height="4" fill="black"/>
<rect x="184" y="196" width="4" height="4" fill="black"/>
<rect x="184" y="200" width="4" height="4" fill="black"/>
<rect x="184" y="204" width="4" height="4" fill="black"/>
<rect x="184" y="208" width="4" height="4" fill="black"/>
<rect x="184" y="212" width="4" height="4" fill="black"/>
<rect x="184" y="216" width="4" height="4" fill="black"/>
<rect x="184" y="220" width="4" height="4" fill="black"/>
<rect x="184" y="224" width="4" height="4" fill="black"/>
<rect x="184" y="228" width="4" height="4" fill="black"/>
<rect x="184" y="232" width="4" height="4" fill="black"/>
<rect x="188" y="188" width="4" height="4" fill="black"/>
<rect x="188" y="192" width="4" height="4" fill="black"/>
<rect x="188" y="196" width="4" height="4" fill="black"/>
<rect x="188" y="200" width="4" height="4" fill="black"/>
<rect x="188" y="204" width="4" height="4" fill="black"/>
<rect x="188" y="208" width="4" height="4" fill="black"/>
<rect x="188" y="212" width="4" height="4" fill="black"/>
<rect x="188" y="216" width="4" height="4" fill="black"/>
<rect x="188" y="220" width="4" height="4" fill="black"/>
<rect x="188" y="224" width="4" height="4" fill="black"/>
<rect x="188" y="228" width="4" height="4" fill="black"/>
<rect x="188" y="232" width="4" height="4" fill="black"/>
<rect x="192" y="188" width="4" height="4" fill="black"/>
<rect x="192" y="192" width="4" height="4" fill="black"/>
<rect x="192" y="196" width="4" height="4" fill="black"/>
<rect x="192" y="200" width="4" height="4" fill="black"/>
<rect x="192" y="204" width="4" height="4" fill="black"/>
<rect x="192" y="208" width="4" height="4" fill="black"/>
<rect x="192" y="212" width="4" height="4" fill="black"/>
<rect x="192" y="216" width="4" height="4" fill="black"/>
<rect x="192" y="220" width="4" height="4" fill="black"/>
<rect x="192" y="224" width="4" height="4" fill="black"/>
<rect x="192" y="228" width="4" height="4" fill="black"/>
<rect x="192" y="232" width="4" height="4" fill="black"/>
<rect x="196" y="188" width="4" height="4" fill="black"/>
<rect x="196" y="192" width="4" height="4" fill="black"/>
<rect x="196" y="196" width="4" height="4" fill="black"/>
<rect x="196" y="200" width="4" height="4" fill="black"/>
<rect x="196" y="204" width="4" height="4" fill="black"/>
<rect x="196" y="208" width="4" height="4" fill="black"/>
<rect x="196" y="212" width="4" height="4" fill="black"/>
<rect x="196" y="216" width="4" height="4" fill="black"/>
<rect x="196" y="220" width="4" height="4" fill="black"/>
<rect x="196" y="224" width="4" height="4" fill="black"/>
<rect x="196" y="228" width="4" height="4" fill="black"/>
<rect x="196" y="232" width="4" height="4" fill="black"/>
<rect x="200" y="192" width="4" height="4" fill="black"/>
<rect x="200" y="196" width="4" height="4" fill="black"/>
<rect x="200" y="200" width="4" height="4" fill="black"/>
<rect x="200" y="204" width="4" height="4" fill="black"/>
<rect x="200" y="208" width="4" height="4" fill="black"/>
<rect x="200" y="212" width="4" height="4" fill="black"/>
<rect x="200" y="216" width="4" height="4" fill="black"/>
<rect x="200" y="220" width="4" height="4" fill="black"/>
<rect x="200" y="224" width="4" height="4" fill="black"/>
<rect x="200" y="228" width="4" height="4" fill="black"/>
<rect x="204" y="196" width="4" height="4" fill="black"/>
<rect x="204" y="200" width="4" height="4" fill="black"/>
<rect x="204" y="204" width="4" height="4" fill="black"/>
<rect x="204" y="208" width="4" height="4" fill="black"/>
<rect x="204" y="212" width="4" height="4" fill="black"/>
<rect x="204" y="216" width="4" height="4" fill="black"/>
<rect x="204" y="220" width="4" height="4" fill="black"/>
<rect x="204" y="224" width="4" height="4" fill="black"/>
<rect x="292" y="196" width="4" height="4" fill="black"/>
<rect x="292" y="200" width="4" height="4" fill="black"/>
<rect x="292" y="204" width="4" height="4" fill="black"/>
<rect x="292" y="208" width="4" height="4" fill="black"/>
<rect x="292" y="212" width="4" height="4" fill="black"/>
<rect x="292" y="216" width="4" height="4" fill="black"/>
<rect x="292" y="220" width="4" height="4" fill="black"/>
<rect x="292" y="224" width="4" height="4" fill="black"/>
<rect x="296" y="192" width="4" height="4" fill="black"/>
<rect x="296" y="196" width="4" height="4" fill="black"/>
<rect x="296" y="200" width="4" height="4" fill="black"/>
<rect x="296" y="204" width="4" height="4" fill="black"/>
<rect x="296" y="208" width="4" height="4" fill="black"/>
<rect x="296" y="212" width="4" height="4" fill="black"/>
<rect x="296" y="216" width="4" height="4" fill="black"/>
<rect x="296" y="220" width="4" height="4" fill="black"/>
<rect x="296" y="224" width="4" height="4" fill="black"/>
<rect x="296" y="228" width="4" height="4" fill="black"/>
<rect x="300" y="188" width="4" height="4" fill="black"/>
<rect x="300" y="192" width="4" height="4" fill="black"/>
<rect x="300" y="196" width="4" height="4" fill="black"/>
<rect x="300" y="200" width="4" height="4" fill="black"/>
<rect x="300" y="204" width="4" height="4" fill="black"/>
<rect x="300" y="208" width="4" height="4" fill="black"/>
<rect x="300" y="212" width="4" height="4" fill="black"/>
<rect x="300" y="216" width="4" height="4" fill="black"/>
<rect x="300" y="220" width="4" height="4" fill="black"/>
<rect x="300" y="224" width="4" height="4" fill="black"/>
<rect x="300" y="228" width="4" height="4" fill="black"/>
<rect x="300" y="232" width="4" height="4" fill="black"/>
<rect x="304" y="188" width="4" height="4" fill="black"/>
<rect x="304" y="192" width="4" height="4" fill="black"/>
<rect x="304" y="196" width="4" height="4" fill="black"/>
<rect x="304" y="200" width="4" height="4" fill="black"/>
<rect x="304" y="204" width="4" height="4" fill="black"/>
<rect x="304" y="208" width="4" height="4" fill="black"/>
<rect x="304" y="212" width="4" height="4" fill="black"/>
<rect x="304" y="216" width="4" height="4" fill="black"/>
<rect x="304" y="220" width="4" height="4" fill="black"/>
<rect x="304" y="224" width="4" height="4" fill="black"/>
<rect x="304" y="228" width="4" height="4" fill="black"/>
<rect x="304" y="232" width="4" height="4" fill="black"/>
<rect x="308" y="188" width="4" height="4" fill="black"/>
<rect x="308" y="192" width="4" height="4" fill="black"/>
<rect x="308" y="196" width="4" height="4" fill="black"/>
<rect x="308" y="200" width="4" height="4" fill="black"/>
<rect x="308" y="204" width="4" height="4" fill="black"/>
<rect x="308" y="208" width="4" height="4" fill="black"/>
<rect x="308" y="212" width="4" height="4" fill="black"/>
<rect x="308" y="216" width="4" height="4" fill="black"/>
<rect x="308" y="220" width="4" height="4" fill="black"/>
<rect x="308" y="224" width="4" height="4" fill="black"/>
<rect x="308" y="228" width="4" height="4" fill="black"/>
<rect x="308" y="232" width="4" height="4" fill="black"/>
<rect x="312" y="188" width="4" height="4" fill="black"/>
<rect x="312" y="192" width="4" height="4" fill="black"/>
<rect x="312" y="196" width="4" height="4" fill="black"/>
<rect x="312" y="200" width="4" height="4" fill="black"/>
<rect x="312" y="204" width="4" height="4" fill="black"/>
<rect x="312" y="208" width="4" height="4" fill="black"/>
<rect x="312" y="212" width="4" height="4" fill="black"/>
<rect x="312" y="216" width="4" height="4" fill="black"/>
<rect x="312" y="220" width="4" height="4" fill="black"/>
<rect x="312" y="224" width="4" height="4" fill="black"/>
<rect x="312" y="228" width="4" height="4" fill="black"/>
<rect x="312" y="232" width="4" height="4" fill="black"/>
<rect x="316" y="188" width="4" height="4" fill="black"/>
<rect x="316" y="192" width="4" height="4" fill="black"/>
<rect x="316" y="200" width="4" height="4" fill="black"/>
<rect x="316" y="204" width="4" height="4" fill="black"/>
<rect x="316" y="208" width="4" height="4" fill="black"/>
<rect x="316" y="212" width="4" height="4" fill="black"/>
<rect x="316" y="216" width="4" height="4" fill="black"/>
<rect x="316" y="220" width="4" height="4" fill="black"/>
<rect x="316" y="224" width="4" height="4" fill="black"/>
<rect x="316" y="228" width="4" height="4" fill="black"/>
<rect x="316" y="232" width="4" height="4" fill="black"/>
<rect x="320" y="192" width="4" height="4" fill="black"/>
<rect x="320" y="196" width="4" height="4" fill="black"/>
<rect x="316" y="196" width="4" height="4" fill="black"/>
<rect x="320" y="200" width="4" height="4" fill="black"/>
<rect x="320" y="204" width="4" height="4" fill="black"/>
<rect x="320" y="208" width="4" height="4" fill="black"/>
<rect x="320" y="212" width="4" height="4" fill="black"/>
<rect x="320" y="216" width="4" height="4" fill="black"/>
<rect x="320" y="220" width="4" height="4" fill="black"/>
<rect x="320" y="224" width="4" height="4" fill="black"/>
<rect x="320" y="228" width="4" height="4" fill="black"/>
<rect x="324" y="196" width="4" height="4" fill="black"/>
<rect x="324" y="200" width="4" height="4" fill="black"/>
<rect x="324" y="204" width="4" height="4" fill="black"/>
<rect x="324" y="208" width="4" height="4" fill="black"/>
<rect x="324" y="212" width="4" height="4" fill="black"/>
<rect x="324" y="216" width="4" height="4" fill="black"/>
<rect x="324" y="220" width="4" height="4" fill="black"/>
<rect x="324" y="224" width="4" height="4" fill="black"/>
<rect x="307" y="216" width="4" height="4" fill="white"/>
<rect x="311" y="216" width="4" height="4" fill="white"/>
<rect x="303" y="216" width="4" height="4" fill="white"/>
<rect x="307" y="220" width="4" height="4" fill="white"/>
<rect x="308" y="224" width="2" height="2" fill="white"/>
<rect x="305" y="220" width="2" height="2" fill="white"/>
<rect x="311" y="220" width="2" height="2" fill="white"/>
<rect x="315" y="217" width="2" height="2" fill="white"/>
<rect x="311" y="214" width="2" height="2" fill="white"/>
<rect x="308" y="210" width="2" height="2" fill="white"/>
<rect x="305" y="214" width="2" height="2" fill="white"/>
<rect x="301" y="217" width="2" height="2" fill="white"/>
<rect x="307" y="212" width="4" height="4" fill="white"/>
<rect x="186" y="214" width="4" height="4" fill="white"/>
<rect x="190" y="214" width="4" height="4" fill="white"/>
<rect x="182" y="214" width="4" height="4" fill="white"/>
<rect x="186" y="218" width="4" height="4" fill="white"/>
<rect x="187" y="222" width="2" height="2" fill="white"/>
<rect x="184" y="218" width="2" height="2" fill="white"/>
<rect x="190" y="218" width="2" height="2" fill="white"/>
<rect x="194" y="215" width="2" height="2" fill="white"/>
<rect x="190" y="212" width="2" height="2" fill="white"/>
<rect x="187" y="208" width="2" height="2" fill="white"/>
<rect x="184" y="212" width="2" height="2" fill="white"/>
<rect x="180" y="215" width="2" height="2" fill="white"/>
<rect x="186" y="210" width="4" height="4" fill="white"/>
<rect x="317" y="196" width="2" height="2" fill="white"/>
<rect x="317" y="198" width="2" height="2" fill="white"/>
<rect x="317" y="200" width="2" height="2" fill="white"/>
<rect x="315" y="198" width="2" height="2" fill="white"/>
<rect x="319" y="198" width="2" height="2" fill="white"/>
<rect x="197" y="196" width="2" height="2" fill="white"/>
<rect x="197" y="198" width="2" height="2" fill="white"/>
<rect x="197" y="200" width="2" height="2" fill="white"/>
<rect x="195" y="198" width="2" height="2" fill="white"/>
<rect x="199" y="198" width="2" height="2" fill="white"/>
</svg>
