<svg width="500" height="500" viewBox="0 0 500 500" fill="none" xmlns="http://www.w3.org/2000/svg">
<rect width="4" height="4" transform="matrix(-1 0 0 1 320 192)" fill="black"/>
<rect width="4" height="4" transform="matrix(-1 0 0 1 312 200)" fill="black"/>
<rect width="4" height="4" transform="matrix(-1 0 0 1 308 204)" fill="black"/>
<rect width="4" height="4" transform="matrix(-1 0 0 1 304 208)" fill="black"/>
<rect width="4" height="4" transform="matrix(-1 0 0 1 324 236)" fill="black"/>
<rect width="4" height="4" transform="matrix(-1 0 0 1 324 188)" fill="black"/>
<rect width="4" height="4" transform="matrix(-1 0 0 1 296 212)" fill="black"/>
<rect width="4" height="4" transform="matrix(-1 0 0 1 320 232)" fill="black"/>
<rect width="4" height="4" transform="matrix(-1 0 0 1 320 236)" fill="black"/>
<rect width="4" height="4" transform="matrix(-1 0 0 1 320 188)" fill="black"/>
<rect width="4" height="4" transform="matrix(-1 0 0 1 316 232)" fill="black"/>
<rect width="4" height="4" transform="matrix(-1 0 0 1 316 228)" fill="black"/>
<rect width="4" height="4" transform="matrix(-1 0 0 1 312 228)" fill="black"/>
<rect width="4" height="4" transform="matrix(-1 0 0 1 312 224)" fill="black"/>
<rect width="4" height="4" transform="matrix(-1 0 0 1 316 192)" fill="black"/>
<rect width="4" height="4" transform="matrix(-1 0 0 1 308 224)" fill="black"/>
<rect width="4" height="4" transform="matrix(-1 0 0 1 308 220)" fill="black"/>
<rect width="4" height="4" transform="matrix(-1 0 0 1 312 196)" fill="black"/>
<rect width="4" height="4" transform="matrix(-1 0 0 1 316 196)" fill="black"/>
<rect width="4" height="4" transform="matrix(-1 0 0 1 308 200)" fill="black"/>
<rect width="4" height="4" transform="matrix(-1 0 0 1 304 204)" fill="black"/>
<rect width="4" height="4" transform="matrix(-1 0 0 1 300 208)" fill="black"/>
<rect width="4" height="4" transform="matrix(-1 0 0 1 300 212)" fill="black"/>
<rect width="4" height="4" transform="matrix(-1 0 0 1 300 216)" fill="black"/>
<rect width="4" height="4" transform="matrix(-1 0 0 1 304 216)" fill="black"/>
<rect width="4" height="4" transform="matrix(-1 0 0 1 304 220)" fill="black"/>
<rect x="184" y="192" width="4" height="4" fill="black"/>
<rect x="192" y="200" width="4" height="4" fill="black"/>
<rect x="196" y="204" width="4" height="4" fill="black"/>
<rect x="200" y="208" width="4" height="4" fill="black"/>
<rect x="180" y="236" width="4" height="4" fill="black"/>
<rect x="180" y="188" width="4" height="4" fill="black"/>
<rect x="208" y="212" width="4" height="4" fill="black"/>
<rect x="184" y="232" width="4" height="4" fill="black"/>
<rect x="184" y="236" width="4" height="4" fill="black"/>
<rect x="184" y="188" width="4" height="4" fill="black"/>
<rect x="188" y="232" width="4" height="4" fill="black"/>
<rect x="188" y="228" width="4" height="4" fill="black"/>
<rect x="192" y="228" width="4" height="4" fill="black"/>
<rect x="192" y="224" width="4" height="4" fill="black"/>
<rect x="188" y="192" width="4" height="4" fill="black"/>
<rect x="196" y="224" width="4" height="4" fill="black"/>
<rect x="196" y="220" width="4" height="4" fill="black"/>
<rect x="192" y="196" width="4" height="4" fill="black"/>
<rect x="188" y="196" width="4" height="4" fill="black"/>
<rect x="196" y="200" width="4" height="4" fill="black"/>
<rect x="200" y="204" width="4" height="4" fill="black"/>
<rect x="204" y="208" width="4" height="4" fill="black"/>
<rect x="204" y="212" width="4" height="4" fill="black"/>
<rect x="204" y="216" width="4" height="4" fill="black"/>
<rect x="200" y="216" width="4" height="4" fill="black"/>
<rect x="200" y="220" width="4" height="4" fill="black"/>
</svg>
